<?xml version="1.0" encoding="UTF-8"?>
<svg id="Layer_1" xmlns="http://www.w3.org/2000/svg" viewBox="0 0 100 100">
  <defs>
    <style>
      .cls-1 {
        fill: #03252f;
        fill-rule: evenodd;
      }

      .cls-2 {
        fill: #f9a45d;
      }
    </style>
  </defs>
  <path class="cls-1" d="M64.54,96.5c-.24,0-.95,0-.95-.96,0-.54,0-1.48.02-2.73.02-2.54.06-6.38.06-10.79,0-3.73-.92-6.29-1.96-8,9.69-1.57,20.97-6.47,20.97-25.41,0-5.22-1.62-9.77-4.81-13.53.69-2.23,1.62-7.13-.8-13.25l-.26-.66-.68-.22c-.13-.04-.64-.18-1.53-.18-1.91,0-6.05.67-12.63,5.04-3.85-.99-7.96-1.51-11.94-1.51-4.03,0-8.04.51-11.94,1.51-6.57-4.37-10.72-5.04-12.63-5.04-.89,0-1.39.14-1.53.18l-.68.22-.26.66c-2.42,6.13-1.49,11.04-.79,13.27-3.19,3.85-4.81,8.39-4.81,13.52,0,19.08,11.24,23.92,20.91,25.43-.65,1.09-1.25,2.53-1.59,4.4-1.04.41-2.58.86-4.24.86-3.08,0-5.55-1.56-7.34-4.63-.1-.19-3.03-5.42-8.72-5.79h-.03c-1.03,0-3.19.19-3.7,1.85-.57,1.85,1.56,3.29,2.46,3.91l.11.07.12.05s2.74,1.38,4.64,6.34c.07.23,2.5,7.43,12.63,7.43h0c1.17,0,2.41-.1,3.69-.3.01,2.01.03,3.88.05,5.27.01.94.02,1.66.02,2.05,0,.96-.71.96-.95.96-.15,0-.31-.02-.49-.05C15.66,89.92,2.69,71.76,2.69,51.22,2.69,24.91,23.93,3.5,50.04,3.5c12.6,0,24.45,4.93,33.38,13.88,9,9.02,13.93,21.04,13.9,33.83,0,20.54-12.97,38.71-32.29,45.24-.17.03-.34.05-.48.05Z"/>
  <path class="cls-2" d="M50.04,5c12.2,0,23.67,4.77,32.31,13.44,8.71,8.74,13.49,20.38,13.46,32.77,0,19.7-12.32,37.14-30.72,43.63,0-.52,0-1.2.02-2.02.02-2.54.06-6.38.06-10.81,0-2.87-.51-5.13-1.23-6.88,9.75-2.01,20.23-7.73,20.23-26.53,0-5.3-1.56-9.96-4.65-13.88.69-2.68,1.27-7.56-1.05-13.46l-.52-1.33-1.36-.43c-.3-.09-.94-.25-1.98-.25-2.46,0-6.66.88-12.9,4.92-3.78-.91-7.78-1.39-11.67-1.39-3.93,0-7.84.47-11.66,1.39-6.24-4.05-10.44-4.93-12.9-4.93-1.03,0-1.68.16-1.98.25l-1.36.43-.52,1.33c-2.33,5.91-1.74,10.8-1.05,13.48-3.05,3.96-4.66,8.72-4.66,13.86,0,19.89,12.22,25.01,20.18,26.59-.26.67-.48,1.37-.66,2.11-.83.26-1.86.49-2.95.49-2.54,0-4.51-1.27-6.04-3.88-.37-.66-3.68-6.14-9.93-6.55h-.1s-.1,0-.1,0c-2.65,0-4.5,1.06-5.06,2.91-.89,2.91,2.08,4.93,3.06,5.59l.12.13.28.11c.32.19,2.34,1.48,3.88,5.5.4,1.11,3.46,8.42,14.04,8.42.71,0,1.45-.03,2.21-.1.01,1.38.03,2.63.04,3.6,0,.52.01.96.02,1.33-18.4-6.48-30.72-23.93-30.72-43.62C4.19,25.73,24.76,5,50.04,5M50.04,2C23.03,2,1.19,24,1.19,51.22c0,21.76,13.99,40.17,33.41,46.69.31.06.6.09.87.09,1.78,0,2.45-1.32,2.45-2.45s-.08-5.05-.08-9.13c-1.94.42-3.66.6-5.19.6-9.15,0-11.23-6.47-11.23-6.47-2.18-5.7-5.42-7.17-5.42-7.17-4.45-3.02.32-3.02.32-3.02,4.93.33,7.52,5.05,7.52,5.05,2.44,4.2,5.73,5.38,8.64,5.38,2.29,0,4.35-.73,5.6-1.31.4-3.18,1.7-5.38,3.07-6.6-10.84-1.14-22.24-5.38-22.24-24.28,0-5.38,1.94-9.78,5.01-13.2-.49-1.22-2.18-6.27.49-13.04,0,0,.35-.11,1.07-.11,1.76,0,5.76.66,12.35,5.16,3.98-1.08,8.09-1.63,12.21-1.63,4.12,0,8.33.57,12.21,1.63,6.6-4.51,10.59-5.16,12.35-5.16.72,0,1.07.11,1.07.11,2.67,6.76.97,11.82.48,13.04,3.16,3.42,5.02,7.82,5.02,13.2,0,18.9-11.4,23.06-22.32,24.28,1.78,1.55,3.32,4.48,3.32,9.13,0,6.6-.08,11.9-.08,13.53,0,1.14.67,2.46,2.45,2.46.26,0,.55-.03.87-.09,19.41-6.52,33.41-24.93,33.41-46.69.08-27.22-21.84-49.22-48.77-49.22h0Z"/>
</svg>