<?xml version="1.0" encoding="UTF-8"?>
<svg id="Layer_1" xmlns="http://www.w3.org/2000/svg" viewBox="0 0 74.36 85.86">
  <defs>
    <style>
      .cls-1 {
        fill: #fff;
      }

      .cls-2 {
        fill: #231f20;
      }
    </style>
  </defs>
  <g>
    <polygon class="cls-2" points=".59 64.06 .59 21.81 37.18 .68 73.77 21.81 73.77 64.06 37.18 85.18 .59 64.06"/>
    <path class="cls-1" d="M37.18,1.36l36,20.78v41.57l-36,20.78L1.18,63.72V22.15L37.18,1.36M37.18,0l-.59.34L.59,21.13l-.59.34v42.93l.59.34,36,20.78.59.34.59-.34,36-20.78.59-.34V21.47l-.59-.34L37.77.34l-.59-.34h0Z"/>
  </g>
  <g>
    <polygon class="cls-2" points="4.1 62.03 4.1 23.83 37.18 4.73 70.26 23.83 70.26 62.03 37.18 81.13 4.1 62.03"/>
    <path class="cls-1" d="M37.18,5.41l32.49,18.76v37.52l-32.49,18.76L4.69,61.69V24.17L37.18,5.41M37.18,4.05l-.59.34L4.1,23.15l-.59.34v38.88l.59.34,32.49,18.76.59.34.59-.34,32.49-18.76.59-.34V23.49l-.59-.34L37.77,4.39l-.59-.34h0Z"/>
  </g>
  <path class="cls-1" d="M4.69,43.13l13.89-12.14,5.23.02-13.86,12.11,13.84,12.09-5.22.02-13.87-12.12Z"/>
  <path class="cls-1" d="M69.67,43.11l-13.93,12.14-5.23-.03,13.9-12.11-13.88-12.09,5.23-.03,13.91,12.12Z"/>
  <polygon class="cls-1" points="47.89 51.23 47.89 55.24 27.22 55.24 27.22 30.62 31.24 30.62 31.24 51.23 47.89 51.23"/>
  <path class="cls-1" d="M41.21,44.62c-.16.03-.33.04-.5.04h0c.17-.01.33-.02.5-.04Z"/>
  <path class="cls-1" d="M43.69,43.9c.42-.22.8-.47,1.17-.75-.36.29-.75.54-1.17.75Z"/>
  <path class="cls-1" d="M45.54,42.53c.54-.55.99-1.19,1.33-1.9-.33.71-.78,1.36-1.33,1.9Z"/>
  <g>
    <polygon class="cls-1" points="42.8 55.66 35.07 44.14 40.94 44.14 48.68 55.66 42.8 55.66"/>
    <path class="cls-2" d="M40.72,44.56l7.17,10.68h-4.86l-7.17-10.68h4.86M41.17,43.72h-6.89l.88,1.31,7.17,10.68.25.37h6.89l-.88-1.31-7.17-10.68-.25-.37h0Z"/>
  </g>
  <path class="cls-1" d="M47.22,35.55c-.43-1.35-1.25-2.51-2.32-3.38-.16-.13-.32-.24-.48-.35-.18-.12-.38-.24-.58-.35-.4-.21-.82-.39-1.25-.53-.01-.01-.03-.01-.04-.01-.21-.06-.43-.11-.65-.16-.23-.04-.46-.08-.69-.1-.17-.02-.33-.03-.5-.03-.07-.01-.15-.01-.22-.01h-8.17v19.6h3.61v-5.58h4.56c.07.01.15.01.22,0,.17,0,.33-.01.5-.03.23-.02.46-.06.69-.1.63-.13,1.23-.34,1.79-.62.42-.22.8-.47,1.17-.75.24-.2.47-.4.68-.62.54-.55.99-1.19,1.33-1.9,0,0-.01,0,0-.01.13-.28.25-.57.34-.87.22-.67.33-1.37.33-2.11s-.11-1.43-.32-2.09ZM43.53,38.14s-.01.06-.02.09c-.02.1-.04.19-.07.29-.06.22-.16.44-.27.64-.04.07-.08.14-.13.2-.3.45-.72.82-1.21,1.05-.08.04-.17.08-.26.11-.09.04-.19.07-.28.09-.09.03-.18.05-.28.06-.1.02-.19.03-.3.04-.07.01-.14.01-.22.01h-4.56v-6.15h4.56c.21,0,.41.02.6.06.02,0,.03,0,.05.01.09.01.18.04.27.07.09.02.18.06.27.1t.02.01c.08.02.15.06.22.1.11.05.21.11.3.18.08.05.15.11.23.17.08.06.15.13.22.2.14.14.27.29.37.46.07.08.12.16.16.25.11.2.2.41.25.63.03.08.05.16.06.24.01.03.01.06.02.09.03.16.04.33.04.5s-.01.34-.04.5Z"/>
  <path class="cls-1" d="M41.21,30.67c-.17-.02-.33-.03-.5-.03h0c.17-.01.34,0,.5.03Z"/>
  <path class="cls-1" d="M43.84,31.47c-.4-.21-.82-.39-1.25-.53.43.13.85.31,1.25.53Z"/>
  <path class="cls-1" d="M47.22,35.55c-.43-1.35-1.25-2.51-2.32-3.38,1.08.85,1.9,2.03,2.32,3.38Z"/>
</svg>