<?xml version="1.0" encoding="UTF-8"?>
<svg id="Layer_1" xmlns="http://www.w3.org/2000/svg" viewBox="0 0 73 84.29">
  <defs>
    <style>
      .cls-1 {
        stroke: #cbeef3;
        stroke-miterlimit: 10;
      }

      .cls-1, .cls-2 {
        fill: #880d1e;
      }

      .cls-3 {
        fill: #cbeaf1;
      }

      .cls-4 {
        fill: #cbeef3;
      }
    </style>
  </defs>
  <polygon class="cls-1" points="72.5 62.93 72.5 21.36 36.5 .58 .5 21.36 .5 62.93 36.5 83.72 72.5 62.93"/>
  <polygon class="cls-1" points="68.99 60.91 68.99 23.39 36.5 4.63 4.01 23.39 4.01 60.91 36.5 79.67 68.99 60.91"/>
  <g>
    <path class="cls-3" d="M19.81,28.34l-.87-1.22h-.01v1.22h-.92v-3.78h1.24c.39,0,.7.05.89.14.41.18.7.63.7,1.17,0,.6-.36,1.09-.94,1.19l1.03,1.29h-1.1ZM19.29,26.46c.38,0,.62-.18.62-.54,0-.33-.25-.51-.61-.51h-.37v1.05h.36Z"/>
    <path class="cls-3" d="M23.34,28.34v-.31h-.01c-.12.25-.46.4-.83.4-.84,0-1.42-.66-1.42-1.52s.61-1.51,1.42-1.51c.35,0,.67.14.83.4h.01v-.3h.85v2.84h-.85ZM23.34,26.92c0-.4-.32-.72-.72-.72s-.7.32-.7.73.31.72.71.72.71-.32.71-.73Z"/>
    <path class="cls-3" d="M28.22,28.34v-1.53c0-.44-.14-.61-.43-.61-.32,0-.47.19-.47.57v1.57h-.85v-1.56c0-.37-.13-.57-.42-.57-.33,0-.48.21-.48.61v1.53h-.85v-2.84h.79v.3h.01c.15-.27.42-.4.78-.4s.64.18.82.51c.21-.32.51-.51.9-.51.63,0,1.05.39,1.05,1.18v1.75h-.85Z"/>
    <path class="cls-3" d="M30.96,28.43c-.86,0-1.53-.64-1.53-1.51s.68-1.51,1.53-1.51,1.53.64,1.53,1.5-.67,1.52-1.53,1.52ZM31.64,26.92c0-.38-.29-.72-.68-.72-.37,0-.67.33-.67.72s.3.72.68.72.68-.34.68-.72Z"/>
    <path class="cls-3" d="M34.65,28.34v-1.57c0-.38-.13-.56-.45-.56-.34,0-.49.19-.49.57v1.56h-.85v-2.84h.79v.3h.01c.18-.29.43-.4.77-.4.51,0,1.05.29,1.05,1.12v1.81h-.85Z"/>
    <path class="cls-3" d="M38.14,28.34v-.31h-.01c-.12.25-.46.4-.83.4-.84,0-1.42-.66-1.42-1.52s.61-1.51,1.42-1.51c.35,0,.67.14.83.4h.01v-.3h.85v2.84h-.85ZM38.14,26.92c0-.4-.32-.72-.72-.72s-.7.32-.7.73.31.72.71.72.71-.32.71-.73Z"/>
    <path class="cls-3" d="M41.05,28.34v-3.78h.97v2.93h1.12v.85h-2.09Z"/>
    <path class="cls-3" d="M44.78,28.43c-.86,0-1.53-.64-1.53-1.51s.68-1.51,1.53-1.51,1.53.64,1.53,1.5-.67,1.52-1.53,1.52ZM45.46,26.92c0-.38-.29-.72-.68-.72-.37,0-.67.33-.67.72s.3.72.68.72.68-.34.68-.72Z"/>
    <path class="cls-3" d="M46.46,28.34v-.58l1.2-1.61h-1.2v-.64h2.11v.64l-1.11,1.55h1.11v.64h-2.11Z"/>
    <path class="cls-3" d="M50.26,28.43c-.86,0-1.53-.64-1.53-1.51s.68-1.51,1.53-1.51,1.53.64,1.53,1.5-.67,1.52-1.53,1.52ZM50.94,26.92c0-.38-.29-.72-.68-.72-.37,0-.67.33-.67.72s.3.72.68.72.68-.34.68-.72Z"/>
    <path class="cls-3" d="M53.95,28.34v-1.57c0-.38-.13-.56-.45-.56-.34,0-.49.19-.49.57v1.56h-.85v-2.84h.79v.3h.01c.18-.29.43-.4.77-.4.51,0,1.05.29,1.05,1.12v1.81h-.85Z"/>
  </g>
  <path class="cls-3" d="M4.01,42.34l13.89-12.14,5.23.02-13.86,12.11,13.84,12.09-5.22.02-13.87-12.12Z"/>
  <path class="cls-3" d="M68.99,42.32l-13.93,12.14-5.23-.03,13.9-12.11-13.88-12.09,5.23-.03,13.91,12.12Z"/>
  <polygon class="cls-3" points="47.21 50.45 47.21 54.46 26.54 54.46 26.54 29.84 30.56 29.84 30.56 50.45 47.21 50.45"/>
  <path class="cls-3" d="M40.25,43.85s-.06.01-.09.01c-.04.01-.08.01-.12.01v-.04h.1v.02h.11Z"/>
  <path class="cls-3" d="M44.3,42.27c-.7.58-1.5,1.02-2.38,1.29.88-.28,1.68-.72,2.38-1.29Z"/>
  <path class="cls-3" d="M45.18,41.42c-.26.31-.56.59-.88.85.32-.26.61-.54.88-.85Z"/>
  <g>
    <path class="cls-3" d="M8.93,59.11l-.51-2.21h0l-.51,2.21h-.79l-.88-3.42h.89l.46,2.22h0l.5-2.22h.67l.5,2.23h0l.47-2.23h.88l-.91,3.42h-.77Z"/>
    <path class="cls-3" d="M11.28,58.06c.04.29.29.49.6.49.21,0,.34-.08.47-.24h.79c-.25.56-.71.89-1.25.89-.74,0-1.36-.6-1.36-1.36s.59-1.38,1.35-1.38,1.35.61,1.35,1.4c0,.07,0,.13-.02.2h-1.92ZM12.45,57.54c-.06-.26-.29-.44-.59-.44-.28,0-.52.17-.58.44h1.17Z"/>
    <path class="cls-3" d="M13.56,59.11v-3.42h.77v1.06c.2-.22.46-.29.73-.29.67,0,1.28.5,1.28,1.35,0,.79-.5,1.39-1.29,1.39-.31,0-.62-.14-.74-.36h0v.27h-.74ZM15.57,57.83c0-.34-.26-.65-.63-.65s-.63.29-.63.65c0,.38.27.66.62.66s.64-.29.64-.66Z"/>
    <path class="cls-3" d="M18.01,59.11v-3.42h1.17c.42,0,.76.07,1,.21.49.28.79.8.79,1.5,0,1.13-.67,1.71-1.73,1.71h-1.22ZM19.28,58.34c.5,0,.82-.31.82-.94s-.31-.95-.81-.95h-.4v1.89h.39Z"/>
    <path class="cls-3" d="M21.99,58.06c.04.29.29.49.6.49.21,0,.34-.08.47-.24h.79c-.25.56-.71.89-1.25.89-.74,0-1.36-.6-1.36-1.36s.59-1.38,1.35-1.38,1.35.61,1.35,1.4c0,.07,0,.13-.02.2h-1.92ZM23.17,57.54c-.06-.26-.29-.44-.59-.44-.28,0-.52.17-.58.44h1.17Z"/>
    <path class="cls-3" d="M25.36,57.27c0-.15-.11-.19-.24-.19s-.22.07-.22.17c0,.14.12.21.48.3.61.16.81.41.81.78,0,.54-.46.87-1.04.87s-.99-.33-1.04-.85h.76c.02.16.14.24.29.24.13,0,.27-.08.27-.2,0-.14-.09-.22-.47-.34-.65-.2-.82-.45-.82-.75,0-.51.48-.84.99-.84.55,0,.95.31.98.81h-.75Z"/>
    <path class="cls-3" d="M26.5,56.27v-.58h.77v.58h-.77ZM26.5,59.11v-2.57h.77v2.57h-.77Z"/>
    <path class="cls-3" d="M29.62,58.81c-.12.24-.4.38-.72.38-.75,0-1.29-.58-1.29-1.35s.55-1.38,1.29-1.38c.33,0,.59.12.71.32h0v-.24h.77v2.29c0,.35-.05.61-.14.79-.18.36-.69.63-1.33.63-.73,0-1.2-.41-1.26-.9h.89c.09.19.26.25.45.25.39,0,.62-.25.62-.72v-.07ZM29.62,57.84c0-.37-.25-.66-.63-.66-.34,0-.62.29-.62.64s.25.66.62.66.63-.27.63-.64Z"/>
    <path class="cls-3" d="M32.51,59.11v-1.42c0-.35-.12-.51-.4-.51-.31,0-.44.17-.44.52v1.41h-.77v-2.57h.72v.27h0c.16-.26.39-.36.7-.36.46,0,.95.26.95,1.02v1.64h-.77Z"/>
    <path class="cls-3" d="M33.79,59.57l1.22-3.88h.85l-1.22,3.88h-.86Z"/>
    <path class="cls-3" d="M36.38,59.11v-3.42h1.17c.42,0,.76.07,1,.21.49.28.79.8.79,1.5,0,1.13-.67,1.71-1.73,1.71h-1.22ZM37.65,58.34c.5,0,.82-.31.82-.94s-.31-.95-.81-.95h-.4v1.89h.39Z"/>
    <path class="cls-3" d="M40.36,58.06c.04.29.29.49.6.49.21,0,.34-.08.47-.24h.79c-.25.56-.71.89-1.25.89-.74,0-1.36-.6-1.36-1.36s.59-1.38,1.35-1.38,1.35.61,1.35,1.4c0,.07,0,.13-.02.2h-1.92ZM41.53,57.54c-.06-.26-.29-.44-.59-.44-.28,0-.52.17-.58.44h1.17Z"/>
    <path class="cls-3" d="M43.27,59.11l-.92-2.57h.8l.49,1.6h0l.49-1.6h.79l-.92,2.57h-.73Z"/>
    <path class="cls-3" d="M45.73,58.06c.04.29.29.49.6.49.21,0,.34-.08.47-.24h.79c-.25.56-.71.89-1.25.89-.74,0-1.36-.6-1.36-1.36s.59-1.38,1.35-1.38,1.35.61,1.35,1.4c0,.07,0,.13-.02.2h-1.92ZM46.9,57.54c-.06-.26-.29-.44-.59-.44-.28,0-.52.17-.58.44h1.17Z"/>
    <path class="cls-3" d="M48.01,59.11v-3.42h.77v3.42h-.77Z"/>
    <path class="cls-3" d="M50.51,59.19c-.78,0-1.38-.58-1.38-1.36s.62-1.36,1.38-1.36,1.38.58,1.38,1.35-.61,1.37-1.38,1.37ZM51.12,57.83c0-.34-.26-.65-.62-.65-.34,0-.61.3-.61.65s.27.65.62.65.61-.31.61-.65Z"/>
    <path class="cls-3" d="M52.24,59.97v-3.42h.72v.28h.01c.2-.25.49-.37.8-.37.73,0,1.25.6,1.25,1.4,0,.73-.51,1.35-1.25,1.35-.3,0-.56-.09-.77-.32v1.09h-.77ZM54.26,57.83c0-.36-.28-.66-.65-.66s-.64.29-.64.66.28.65.64.65.64-.3.64-.65Z"/>
    <path class="cls-3" d="M58.55,59.11v-1.38c0-.4-.13-.55-.39-.55-.29,0-.42.18-.42.51v1.42h-.77v-1.41c0-.33-.12-.52-.38-.52-.3,0-.43.19-.43.55v1.38h-.77v-2.57h.72v.27h0c.13-.24.38-.36.71-.36s.58.17.74.46c.19-.29.46-.46.81-.46.57,0,.95.35.95,1.07v1.59h-.77Z"/>
    <path class="cls-3" d="M60.39,58.06c.04.29.29.49.6.49.21,0,.34-.08.47-.24h.79c-.25.56-.71.89-1.25.89-.74,0-1.36-.6-1.36-1.36s.59-1.38,1.35-1.38,1.35.61,1.35,1.4c0,.07,0,.13-.02.2h-1.92ZM61.57,57.54c-.06-.26-.29-.44-.59-.44-.28,0-.52.17-.58.44h1.17Z"/>
    <path class="cls-3" d="M64.28,59.11v-1.42c0-.35-.12-.51-.4-.51-.31,0-.44.17-.44.52v1.41h-.77v-2.57h.72v.27h0c.16-.26.39-.36.7-.36.46,0,.95.26.95,1.02v1.64h-.77Z"/>
    <path class="cls-3" d="M65.66,59.11v-1.98h-.38v-.58h.38v-.86h.77v.86h.37v.58h-.37v1.98h-.77Z"/>
  </g>
  <g>
    <polygon class="cls-4" points="42.07 54.96 34.35 43.36 35.27 43.33 40.44 43.33 40.57 43.58 48.14 54.96 42.07 54.96"/>
    <path class="cls-2" d="M40.14,43.83v.02s.02.01.02.01l7.05,10.6h-4.87l-7.05-10.6-.02-.03h4.87M40.14,42.83h-6.74l1.04,1.55,7.07,10.63.3.45h7.27l-1.03-1.55-7.04-10.58-.24-.48-.63-.02h0Z"/>
  </g>
  <path class="cls-3" d="M46.32,34.12c-.2-.47-.46-.92-.75-1.33-.09-.14-.2-.27-.31-.4-.13-.15-.26-.3-.4-.44-.27-.28-.57-.54-.89-.77-.16-.11-.33-.22-.5-.33-.51-.3-1.06-.55-1.64-.72-.19-.06-.39-.11-.59-.15-.23-.04-.47-.08-.7-.1-.17-.02-.33-.03-.5-.03-.07-.01-.15-.01-.22-.01h-8.08v19.23h3.53v-5.24h4.87v.02h.11c.1,0,.19-.01.29-.02.23-.02.47-.06.7-.1.22-.05.43-.1.64-.16.02,0,.03,0,.04,0,.88-.28,1.68-.72,2.38-1.29.32-.26.61-.54.88-.85.44-.52.82-1.1,1.1-1.74.13-.29.24-.59.32-.9.06-.18.11-.35.14-.54.09-.45.14-.92.14-1.39,0-.97-.2-1.89-.56-2.73ZM42.85,37.38c-.07.41-.22.79-.44,1.13-.04.08-.1.16-.16.23-.05.08-.11.15-.18.21-.29.32-.66.57-1.06.74-.09.04-.18.07-.27.1-.09.03-.18.05-.27.07-.02,0-.03.01-.05.01-.1.02-.19.03-.29.04-.03.01-.06.01-.09.01-.07.01-.14.01-.22.01h-4.55v-6.16h4.55c.21.01.41.03.6.07.02,0,.03,0,.05.01.09.01.18.04.27.07.09.02.18.06.27.1t.02.01c.08.02.15.06.22.1.05.03.11.06.16.09.13.08.26.16.37.26.08.06.15.13.22.2.11.11.21.22.29.34.04.05.09.12.12.18.22.34.38.72.44,1.13.03.17.05.34.05.52s-.02.36-.05.53Z"/>
  <path class="cls-3" d="M40.15,43.85s-.07.02-.11.01c-.07.01-.15.01-.22.01v-.04h.32v.02Z"/>
  <path class="cls-3" d="M40.54,29.88c-.17-.02-.33-.03-.5-.03h0c.17-.01.34,0,.5.03Z"/>
  <path class="cls-3" d="M41.83,30.13c.58.16,1.13.41,1.64.72-.51-.3-1.06-.55-1.64-.72Z"/>
  <path class="cls-3" d="M43.97,31.18c.32.23.61.48.89.77-.27-.28-.57-.54-.89-.77Z"/>
  <path class="cls-3" d="M46.32,34.12c-.2-.47-.46-.92-.75-1.33.3.41.55.86.75,1.33Z"/>
  <rect class="cls-3" x="35.27" y="43.83" width="4.55" height=".03"/>
</svg>