<?xml version="1.0" encoding="UTF-8"?>
<svg id="Layer_1" xmlns="http://www.w3.org/2000/svg" viewBox="0 0 74.36 85.86">
  <defs>
    <style>
      .cls-1 {
        fill: #fff;
      }

      .cls-2 {
        fill: #231f20;
      }
    </style>
  </defs>
  <g>
    <polygon class="cls-2" points=".59 64.06 .59 21.81 37.18 .68 73.77 21.81 73.77 64.06 37.18 85.18 .59 64.06"/>
    <path class="cls-1" d="M37.18,1.36l36,20.78v41.57l-36,20.78L1.18,63.72V22.15L37.18,1.36M37.18,0l-.59.34L.59,21.13l-.59.34v42.93l.59.34,36,20.78.59.34.59-.34,36-20.78.59-.34V21.47l-.59-.34L37.77.34l-.59-.34h0Z"/>
  </g>
  <g>
    <polygon class="cls-2" points="4.1 62.03 4.1 23.83 37.18 4.73 70.26 23.83 70.26 62.03 37.18 81.13 4.1 62.03"/>
    <path class="cls-1" d="M37.18,5.41l32.49,18.76v37.52l-32.49,18.76L4.69,61.69V24.17L37.18,5.41M37.18,4.05l-.59.34L4.1,23.15l-.59.34v38.88l.59.34,32.49,18.76.59.34.59-.34,32.49-18.76.59-.34V23.49l-.59-.34L37.77,4.39l-.59-.34h0Z"/>
  </g>
  <g>
    <path class="cls-1" d="M20.49,29.13l-.87-1.22h-.01v1.22h-.92v-3.78h1.24c.39,0,.7.05.89.14.41.18.7.63.7,1.17,0,.6-.36,1.09-.94,1.19l1.03,1.29h-1.1ZM19.97,27.25c.38,0,.62-.18.62-.54,0-.33-.25-.51-.61-.51h-.37v1.05h.36Z"/>
    <path class="cls-1" d="M24.02,29.13v-.31h-.01c-.12.25-.46.4-.83.4-.84,0-1.42-.66-1.42-1.52s.61-1.51,1.42-1.51c.35,0,.67.14.83.4h.01v-.3h.85v2.84h-.85ZM24.02,27.71c0-.4-.32-.72-.72-.72s-.7.32-.7.73.31.72.71.72.71-.32.71-.73Z"/>
    <path class="cls-1" d="M28.9,29.13v-1.53c0-.44-.14-.61-.43-.61-.32,0-.47.19-.47.57v1.57h-.85v-1.56c0-.37-.13-.57-.42-.57-.33,0-.48.21-.48.61v1.53h-.85v-2.84h.79v.3h.01c.15-.27.42-.4.78-.4s.64.18.82.51c.21-.32.51-.51.9-.51.63,0,1.05.39,1.05,1.18v1.75h-.85Z"/>
    <path class="cls-1" d="M31.64,29.22c-.86,0-1.53-.64-1.53-1.51s.68-1.51,1.53-1.51,1.53.64,1.53,1.5-.67,1.52-1.53,1.52ZM32.32,27.71c0-.38-.29-.72-.68-.72-.37,0-.67.33-.67.72s.3.72.68.72.68-.34.68-.72Z"/>
    <path class="cls-1" d="M35.33,29.13v-1.57c0-.38-.13-.56-.45-.56-.34,0-.49.19-.49.57v1.56h-.85v-2.84h.79v.3h.01c.18-.29.43-.4.77-.4.51,0,1.05.29,1.05,1.12v1.81h-.85Z"/>
    <path class="cls-1" d="M38.82,29.13v-.31h-.01c-.12.25-.46.4-.83.4-.84,0-1.42-.66-1.42-1.52s.61-1.51,1.42-1.51c.35,0,.67.14.83.4h.01v-.3h.85v2.84h-.85ZM38.82,27.71c0-.4-.32-.72-.72-.72s-.7.32-.7.73.31.72.71.72.71-.32.71-.73Z"/>
    <path class="cls-1" d="M41.73,29.13v-3.78h.97v2.93h1.12v.85h-2.09Z"/>
    <path class="cls-1" d="M45.46,29.22c-.86,0-1.53-.64-1.53-1.51s.68-1.51,1.53-1.51,1.53.64,1.53,1.5-.67,1.52-1.53,1.52ZM46.14,27.71c0-.38-.29-.72-.68-.72-.37,0-.67.33-.67.72s.3.72.68.72.68-.34.68-.72Z"/>
    <path class="cls-1" d="M47.14,29.13v-.58l1.2-1.61h-1.2v-.64h2.11v.64l-1.11,1.55h1.11v.64h-2.11Z"/>
    <path class="cls-1" d="M50.94,29.22c-.86,0-1.53-.64-1.53-1.51s.68-1.51,1.53-1.51,1.53.64,1.53,1.5-.67,1.52-1.53,1.52ZM51.62,27.71c0-.38-.29-.72-.68-.72-.37,0-.67.33-.67.72s.3.72.68.72.68-.34.68-.72Z"/>
    <path class="cls-1" d="M54.63,29.13v-1.57c0-.38-.13-.56-.45-.56-.34,0-.49.19-.49.57v1.56h-.85v-2.84h.79v.3h.01c.18-.29.43-.4.77-.4.51,0,1.05.29,1.05,1.12v1.81h-.85Z"/>
  </g>
  <path class="cls-1" d="M4.69,43.13l13.89-12.14,5.23.02-13.86,12.11,13.84,12.09-5.22.02-13.87-12.12Z"/>
  <path class="cls-1" d="M69.67,43.11l-13.93,12.14-5.23-.03,13.9-12.11-13.88-12.09,5.23-.03,13.91,12.12Z"/>
  <polygon class="cls-1" points="47.89 51.23 47.89 55.24 27.22 55.24 27.22 30.62 31.23 30.62 31.23 51.23 47.89 51.23"/>
  <path class="cls-1" d="M41.22,44.61c-.16.03-.33.04-.5.04h0c.17-.01.33-.02.5-.04Z"/>
  <path class="cls-1" d="M46.3,41.62c-.79,1.15-1.93,2.06-3.25,2.56,1.32-.52,2.45-1.42,3.25-2.56Z"/>
  <g>
    <path class="cls-1" d="M9.61,59.9l-.51-2.21h0l-.51,2.21h-.79l-.88-3.42h.89l.46,2.22h0l.5-2.22h.67l.5,2.23h0l.47-2.23h.88l-.91,3.42h-.77Z"/>
    <path class="cls-1" d="M11.96,58.85c.04.29.29.49.6.49.21,0,.34-.08.47-.24h.79c-.25.56-.71.89-1.25.89-.74,0-1.36-.6-1.36-1.36s.59-1.38,1.35-1.38,1.35.61,1.35,1.4c0,.07,0,.13-.02.2h-1.92ZM13.13,58.33c-.06-.26-.29-.44-.59-.44-.28,0-.52.17-.58.44h1.17Z"/>
    <path class="cls-1" d="M14.24,59.9v-3.42h.77v1.06c.2-.22.46-.29.73-.29.67,0,1.28.5,1.28,1.35,0,.79-.5,1.39-1.29,1.39-.31,0-.62-.14-.74-.36h0v.27h-.74ZM16.25,58.61c0-.34-.26-.65-.63-.65s-.63.29-.63.65c0,.38.27.66.62.66s.64-.29.64-.66Z"/>
    <path class="cls-1" d="M18.69,59.9v-3.42h1.17c.42,0,.76.07,1,.21.49.28.79.8.79,1.5,0,1.13-.67,1.71-1.73,1.71h-1.22ZM19.96,59.13c.5,0,.82-.31.82-.94s-.31-.95-.81-.95h-.4v1.89h.39Z"/>
    <path class="cls-1" d="M22.67,58.85c.04.29.29.49.6.49.21,0,.34-.08.47-.24h.79c-.25.56-.71.89-1.25.89-.74,0-1.36-.6-1.36-1.36s.59-1.38,1.35-1.38,1.35.61,1.35,1.4c0,.07,0,.13-.02.2h-1.92ZM23.85,58.33c-.06-.26-.29-.44-.59-.44-.28,0-.52.17-.58.44h1.17Z"/>
    <path class="cls-1" d="M26.04,58.05c0-.15-.11-.19-.24-.19s-.22.07-.22.17c0,.14.12.21.48.3.61.16.81.41.81.78,0,.54-.46.87-1.04.87s-.99-.33-1.04-.85h.76c.02.16.14.24.29.24.13,0,.27-.08.27-.2,0-.14-.09-.22-.47-.34-.65-.2-.82-.45-.82-.75,0-.51.48-.84.99-.84.55,0,.95.31.98.81h-.75Z"/>
    <path class="cls-1" d="M27.18,57.06v-.58h.77v.58h-.77ZM27.18,59.9v-2.57h.77v2.57h-.77Z"/>
    <path class="cls-1" d="M30.3,59.6c-.12.24-.4.38-.72.38-.75,0-1.29-.58-1.29-1.35s.55-1.38,1.29-1.38c.33,0,.59.12.71.32h0v-.24h.77v2.29c0,.35-.05.61-.14.79-.18.36-.69.63-1.33.63-.73,0-1.2-.41-1.26-.9h.89c.09.19.26.25.45.25.39,0,.62-.25.62-.72v-.07ZM30.3,58.62c0-.37-.25-.66-.63-.66-.34,0-.62.29-.62.64s.25.66.62.66.63-.27.63-.64Z"/>
    <path class="cls-1" d="M33.19,59.9v-1.42c0-.35-.12-.51-.4-.51-.31,0-.44.17-.44.52v1.41h-.77v-2.57h.72v.27h0c.16-.26.39-.36.7-.36.46,0,.95.26.95,1.02v1.64h-.77Z"/>
    <path class="cls-1" d="M34.47,60.36l1.22-3.88h.85l-1.22,3.88h-.86Z"/>
    <path class="cls-1" d="M37.06,59.9v-3.42h1.17c.42,0,.76.07,1,.21.49.28.79.8.79,1.5,0,1.13-.67,1.71-1.73,1.71h-1.22ZM38.33,59.13c.5,0,.82-.31.82-.94s-.31-.95-.81-.95h-.4v1.89h.39Z"/>
    <path class="cls-1" d="M41.04,58.85c.04.29.29.49.6.49.21,0,.34-.08.47-.24h.79c-.25.56-.71.89-1.25.89-.74,0-1.36-.6-1.36-1.36s.59-1.38,1.35-1.38,1.35.61,1.35,1.4c0,.07,0,.13-.02.2h-1.92ZM42.21,58.33c-.06-.26-.29-.44-.59-.44-.28,0-.52.17-.58.44h1.17Z"/>
    <path class="cls-1" d="M43.95,59.9l-.92-2.57h.8l.49,1.6h0l.49-1.6h.79l-.92,2.57h-.73Z"/>
    <path class="cls-1" d="M46.41,58.85c.04.29.29.49.6.49.21,0,.34-.08.47-.24h.79c-.25.56-.71.89-1.25.89-.74,0-1.36-.6-1.36-1.36s.59-1.38,1.35-1.38,1.35.61,1.35,1.4c0,.07,0,.13-.02.2h-1.92ZM47.58,58.33c-.06-.26-.29-.44-.59-.44-.28,0-.52.17-.58.44h1.17Z"/>
    <path class="cls-1" d="M48.69,59.9v-3.42h.77v3.42h-.77Z"/>
    <path class="cls-1" d="M51.19,59.97c-.78,0-1.38-.58-1.38-1.36s.62-1.36,1.38-1.36,1.38.58,1.38,1.35-.61,1.37-1.38,1.37ZM51.8,58.61c0-.34-.26-.65-.62-.65-.34,0-.61.3-.61.65s.27.65.62.65.61-.31.61-.65Z"/>
    <path class="cls-1" d="M52.92,60.75v-3.42h.72v.28h.01c.2-.25.49-.37.8-.37.73,0,1.25.6,1.25,1.4,0,.73-.51,1.35-1.25,1.35-.3,0-.56-.09-.77-.32v1.09h-.77ZM54.94,58.62c0-.36-.28-.66-.65-.66s-.64.29-.64.66.28.65.64.65.64-.3.64-.65Z"/>
    <path class="cls-1" d="M59.23,59.9v-1.38c0-.4-.13-.55-.39-.55-.29,0-.42.18-.42.51v1.42h-.77v-1.41c0-.33-.12-.52-.38-.52-.3,0-.43.19-.43.55v1.38h-.77v-2.57h.72v.27h0c.13-.24.38-.36.71-.36s.58.17.74.46c.19-.29.46-.46.81-.46.57,0,.95.35.95,1.07v1.59h-.77Z"/>
    <path class="cls-1" d="M61.07,58.85c.04.29.29.49.6.49.21,0,.34-.08.47-.24h.79c-.25.56-.71.89-1.25.89-.74,0-1.36-.6-1.36-1.36s.59-1.38,1.35-1.38,1.35.61,1.35,1.4c0,.07,0,.13-.02.2h-1.92ZM62.25,58.33c-.06-.26-.29-.44-.59-.44-.28,0-.52.17-.58.44h1.17Z"/>
    <path class="cls-1" d="M64.96,59.9v-1.42c0-.35-.12-.51-.4-.51-.31,0-.44.17-.44.52v1.41h-.77v-2.57h.72v.27h0c.16-.26.39-.36.7-.36.46,0,.95.26.95,1.02v1.64h-.77Z"/>
    <path class="cls-1" d="M66.34,59.9v-1.98h-.38v-.58h.38v-.86h.77v.86h.37v.58h-.37v1.98h-.77Z"/>
  </g>
  <g>
    <polygon class="cls-1" points="42.78 55.68 35.13 44.16 41.05 44.16 48.71 55.68 42.78 55.68"/>
    <path class="cls-2" d="M40.81,44.61l7.07,10.63h-4.86l-7.07-10.63h4.86M41.29,43.72h-6.99l.91,1.37,7.07,10.63.26.39h6.99l-.91-1.37-7.07-10.63-.26-.39h0Z"/>
  </g>
  <path class="cls-1" d="M47,34.9c-.09-.21-.19-.41-.3-.61-.22-.4-.48-.77-.76-1.12-.22-.26-.45-.5-.7-.73-.13-.11-.26-.22-.39-.33-.54-.41-1.13-.75-1.77-1.01-.16-.06-.32-.12-.49-.17-.22-.06-.44-.12-.67-.17-.23-.04-.47-.08-.7-.1-.17-.02-.33-.03-.5-.03-.07-.01-.15-.01-.22-.01h-8.08v19.23h3.53v-5.21h4.55c.07.01.15.01.22,0,.17,0,.33,0,.5-.03.23-.02.47-.06.7-.1.39-.08.77-.19,1.13-.33,1.32-.52,2.45-1.42,3.25-2.56.14-.21.28-.43.4-.65.11-.2.21-.4.3-.61.35-.84.55-1.76.55-2.73s-.2-1.89-.55-2.73ZM43.54,38.13s0,.06-.02.09c0,.1-.04.19-.07.29-.08.28-.2.54-.36.78-.04.08-.1.16-.16.23-.29.37-.66.68-1.09.88-.08.04-.17.08-.26.11-.09.04-.19.07-.28.09-.09.03-.18.05-.28.06-.1.02-.19.03-.3.04-.07.01-.14.01-.22.01h-4.55v-6.16h4.55c.1.01.21.01.31.03.1,0,.2.02.29.04.02-.01.03,0,.05.01.09,0,.18.04.27.07.09.02.18.06.27.1.01-.01.01,0,.02.01.08.02.15.06.22.1.1.05.2.11.3.18.08.05.16.11.23.17.08.06.15.13.22.2.1.1.19.2.27.31.1.12.18.25.26.39.1.19.18.39.24.59.03.1.06.19.07.29.01.03.01.06.02.09.03.16.04.33.04.5s-.01.34-.04.5Z"/>
  <path class="cls-1" d="M41.22,30.66c-.17-.02-.33-.03-.5-.03h0c.17-.01.34,0,.5.03Z"/>
  <path class="cls-1" d="M43.08,31.1c.64.25,1.24.59,1.77,1.01-.54-.41-1.13-.75-1.77-1.01Z"/>
  <path class="cls-1" d="M46.7,34.29c-.22-.4-.48-.77-.76-1.12.3.35.55.72.76,1.12Z"/>
</svg>