<?xml version="1.0" encoding="UTF-8"?>
<svg id="Layer_1" xmlns="http://www.w3.org/2000/svg" viewBox="0 0 100 100">
  <defs>
    <style>
      .cls-1 {
        fill: #03252f;
        fill-rule: evenodd;
      }

      .cls-2 {
        fill: #f9a45d;
      }
    </style>
  </defs>
  <path class="cls-1" d="M64.54,97c-1.31,0-1.45-1.02-1.45-1.46,0-.54,0-1.48.02-2.74.02-2.54.06-6.37.06-10.79,0-4.12-1.15-6.76-2.3-8.38,9.67-1.42,21.31-5.98,21.31-25.03,0-5.19-1.64-9.71-4.87-13.42.67-2.02,1.76-6.94-.7-13.18l-.17-.44-.45-.14c-.08-.03-.54-.16-1.38-.16-1.87,0-5.96.67-12.54,5.08-3.87-1.01-8.02-1.55-12.03-1.55-4.06,0-8.1.52-12.03,1.55-6.57-4.41-10.66-5.08-12.54-5.08-.84,0-1.29.13-1.38.16l-.45.14-.17.44c-2.47,6.25-1.37,11.18-.7,13.19-3.23,3.8-4.87,8.31-4.87,13.41,0,19.2,11.61,23.7,21.25,25.05-.8,1.14-1.61,2.8-1.99,5.14-1.08.44-2.8,1-4.69,1-3.27,0-5.89-1.64-7.77-4.88-.1-.19-2.9-5.19-8.32-5.55h-.02c-.88,0-2.79.15-3.2,1.49-.41,1.33,1,2.49,2.27,3.35l.07.05.08.04s2.91,1.43,4.9,6.62c.08.24,2.39,7.11,12.16,7.11h0c1.32,0,2.72-.13,4.19-.39,0,2.23.04,4.33.06,5.85.01.94.02,1.67.02,2.06,0,.44-.14,1.46-1.45,1.46-.19,0-.39-.02-.61-.06C15.31,90.35,2.19,71.98,2.19,51.22,2.19,24.63,23.65,3,50.04,3c12.73,0,24.71,4.98,33.73,14.03,9.09,9.12,14.08,21.26,14.04,34.18,0,20.77-13.12,39.13-32.66,45.73-.22.04-.42.06-.61.06h0Z"/>
  <path class="cls-2" d="M50.04,4c12.46,0,24.19,4.88,33.02,13.74,8.9,8.93,13.79,20.82,13.75,33.48,0,20.31-12.82,38.28-31.91,44.75-.13.02-.25.03-.36.03-.27,0-.45,0-.45-.46,0-.54,0-1.48.02-2.73.02-2.54.06-6.38.06-10.8,0-3.4-.75-5.87-1.67-7.63,9.71-1.72,20.68-6.92,20.68-25.78,0-5.25-1.6-9.83-4.75-13.65.7-2.4,1.49-7.29-.89-13.32l-.35-.89-.91-.29c-.19-.06-.74-.2-1.68-.2-2.38,0-6.48.88-12.72,5-3.82-.96-7.9-1.47-11.85-1.47-3.99,0-7.97.5-11.84,1.47-6.24-4.12-10.34-5-12.72-5-.93,0-1.48.14-1.68.2l-.91.29-.35.89c-2.39,6.04-1.58,10.94-.88,13.34-3.12,3.86-4.76,8.55-4.76,13.63,0,19,10.94,24.15,20.62,25.81-.56,1.09-.98,2.32-1.25,3.65-.99.36-2.34.73-3.8.73-2.93,0-5.18-1.43-6.9-4.37-.28-.5-3.33-5.67-9.13-6.06h-.07s-.07,0-.07,0c-1.03,0-3.5.21-4.11,2.2-.68,2.21,1.75,3.85,2.66,4.47l.11.08.16.07c.1.05,2.59,1.33,4.4,6.05.3.84,3.04,7.78,13.11,7.78,1.02,0,2.09-.07,3.2-.22.01,1.81.03,3.48.05,4.7.01.94.02,1.66.02,2.05,0,.45-.18.45-.45.45-.11,0-.23-.01-.36-.03-19.09-6.47-31.91-24.44-31.91-44.75C3.19,25.18,24.21,4,50.04,4M50.04,2C23.03,2,1.19,24,1.19,51.22c0,21.76,13.99,40.17,33.41,46.69.31.06.6.09.87.09,1.78,0,2.45-1.32,2.45-2.45s-.08-5.05-.08-9.13c-1.94.42-3.66.6-5.19.6-9.15,0-11.23-6.47-11.23-6.47-2.18-5.7-5.42-7.17-5.42-7.17-4.45-3.02.32-3.02.32-3.02,4.93.33,7.52,5.05,7.52,5.05,2.44,4.2,5.73,5.38,8.64,5.38,2.29,0,4.35-.73,5.6-1.31.4-3.18,1.7-5.38,3.07-6.6-10.84-1.14-22.24-5.38-22.24-24.28,0-5.38,1.94-9.78,5.01-13.2-.49-1.22-2.18-6.27.49-13.04,0,0,.35-.11,1.07-.11,1.76,0,5.76.66,12.35,5.16,3.98-1.08,8.09-1.63,12.21-1.63,4.12,0,8.33.57,12.21,1.63,6.6-4.51,10.59-5.16,12.35-5.16.72,0,1.07.11,1.07.11,2.67,6.76.97,11.82.48,13.04,3.16,3.42,5.02,7.82,5.02,13.2,0,18.9-11.4,23.06-22.32,24.28,1.78,1.55,3.32,4.48,3.32,9.13,0,6.6-.08,11.9-.08,13.53,0,1.14.67,2.46,2.45,2.46.26,0,.55-.03.87-.09,19.41-6.52,33.41-24.93,33.41-46.69.08-27.22-21.84-49.22-48.77-49.22h0Z"/>
</svg>