<?xml version="1.0" encoding="UTF-8"?>
<svg id="Layer_1" xmlns="http://www.w3.org/2000/svg" viewBox="0 0 100 100">
  <defs>
    <style>
      .cls-1 {
        fill: #f9a45d;
      }

      .cls-2 {
        fill: none;
        stroke: #f9a45d;
        stroke-miterlimit: 10;
        stroke-width: 7px;
      }

      .cls-3 {
        fill: #03252f;
      }
    </style>
  </defs>
  <g>
    <path class="cls-3" d="M27.63,8.41h44.75c10.6,0,19.21,8.61,19.21,19.21v44.75c0,10.6-8.61,19.21-19.21,19.21H27.62c-10.6,0-19.21-8.61-19.21-19.21V27.63c0-10.6,8.61-19.21,19.21-19.21Z"/>
    <path class="cls-1" d="M72.37,11.41c8.94,0,16.21,7.27,16.21,16.21v44.75c0,8.94-7.27,16.21-16.21,16.21H27.63c-8.94,0-16.21-7.27-16.21-16.21V27.63c0-8.94,7.27-16.21,16.21-16.21h44.75M72.37,5.41H27.63C15.36,5.41,5.41,15.36,5.41,27.63v44.75c0,12.27,9.95,22.21,22.21,22.21h44.75c12.27,0,22.21-9.95,22.21-22.21V27.63c0-12.27-9.95-22.21-22.21-22.21h0Z"/>
  </g>
  <rect class="cls-2" x="35.32" y="35.32" width="29.37" height="29.37" rx="14.68" ry="14.68"/>
  <rect class="cls-2" x="70.72" y="24.48" width="6" height="6" rx="3" ry="3"/>
</svg>