<?xml version="1.0" encoding="UTF-8"?>
<svg id="Layer_1" xmlns="http://www.w3.org/2000/svg" viewBox="0 0 100 100">
  <defs>
    <style>
      .cls-1 {
        fill: #f9a45d;
      }

      .cls-2 {
        fill: #03252f;
      }
    </style>
  </defs>
  <rect class="cls-2" x="5.58" y="5.58" width="88.83" height="88.83" rx="10.53" ry="10.53"/>
  <path class="cls-1" d="M16.16,5.58c-5.82,0-10.58,4.76-10.58,10.58v67.68c0,5.82,4.76,10.58,10.58,10.58h67.68c5.82,0,10.58-4.76,10.58-10.58V16.16c0-5.82-4.76-10.58-10.58-10.58H16.16ZM16.16,9.81h67.68c3.53,0,6.35,2.82,6.35,6.35v67.68c0,3.53-2.82,6.35-6.35,6.35H16.16c-3.53,0-6.35-2.82-6.35-6.35V16.16c0-3.53,2.82-6.35,6.35-6.35ZM26.73,20.41c-2.32,0-4.4.69-5.94,1.99s-2.49,3.24-2.49,5.32c0,3.95,3.43,7.03,7.78,7.33,0,0,0,0,0,0,.21.07.43.11.64.11,4.81,0,8.44-3.37,8.44-7.45,0-.04,0-.07,0-.11-.22-4.02-3.8-7.2-8.43-7.2ZM26.73,24.59c2.94,0,4.11,1.32,4.23,3.18-.03,1.81-1.15,3.21-4.23,3.21s-4.25-1.5-4.25-3.27c0-.88.32-1.55,1-2.12.68-.57,1.76-1.01,3.26-1.01ZM20.39,37.31c-1.17,0-2.11.95-2.12,2.12v40.19c0,1.17.95,2.11,2.12,2.12h12.69c1.17,0,2.11-.95,2.12-2.12v-40.19c0-1.17-.95-2.11-2.12-2.12h-12.69ZM39.42,37.31c-1.17,0-2.11.95-2.12,2.12v40.19c0,1.17.95,2.11,2.12,2.12h12.69c1.17,0,2.11-.95,2.12-2.12v-21.15c0-1.75.48-3.5,1.32-4.64s1.91-1.83,3.93-1.79c2.08.04,3.19.75,4.02,1.87.83,1.12,1.3,2.8,1.3,4.56v21.15c0,1.17.95,2.11,2.12,2.12h12.69c1.17,0,2.11-.95,2.12-2.12v-22.71c0-6.26-1.86-11.23-5.04-14.58s-7.6-5.01-12.28-5.01-7.83,1.49-10.18,3.01v-.9c0-1.17-.95-2.11-2.12-2.12h-12.69ZM22.5,41.54h8.46v35.96h-8.46v-35.96ZM41.54,41.54h8.46v3.3c0,1.17.95,2.12,2.12,2.11.66,0,1.29-.31,1.69-.84,0,0,3.32-4.57,10.6-4.57,3.71,0,6.89,1.23,9.21,3.68,2.32,2.45,3.87,6.23,3.87,11.67v20.6h-8.46v-19.04c0-2.47-.59-5.02-2.14-7.09s-4.14-3.52-7.34-3.57c-3.22-.06-5.86,1.42-7.41,3.52s-2.15,4.68-2.15,7.15v19.04h-8.46v-35.96Z"/>
</svg>