<?xml version="1.0" encoding="UTF-8"?>
<svg id="Layer_1" xmlns="http://www.w3.org/2000/svg" viewBox="0 0 73 84.29">
  <defs>
    <style>
      .cls-1 {
        stroke: #cbeef3;
        stroke-miterlimit: 10;
      }

      .cls-1, .cls-2 {
        fill: #880d1e;
      }

      .cls-3 {
        fill: #cbeaf1;
      }

      .cls-4 {
        fill: #cbeef3;
      }
    </style>
  </defs>
  <polygon class="cls-1" points="72.5 62.93 72.5 21.36 36.5 .58 .5 21.36 .5 62.93 36.5 83.72 72.5 62.93"/>
  <polygon class="cls-1" points="68.99 60.91 68.99 23.39 36.5 4.63 4.01 23.39 4.01 60.91 36.5 79.67 68.99 60.91"/>
  <path class="cls-3" d="M4.01,42.34l13.89-12.14,5.23.02-13.86,12.11,13.84,12.09-5.22.02-13.87-12.12Z"/>
  <path class="cls-3" d="M68.99,42.32l-13.93,12.14-5.23-.03,13.9-12.11-13.88-12.09,5.23-.03,13.91,12.12Z"/>
  <polygon class="cls-3" points="47.21 50.45 47.21 54.46 26.54 54.46 26.54 29.84 30.55 29.84 30.55 50.45 47.21 50.45"/>
  <path class="cls-3" d="M40.53,43.84c-.17.02-.34.04-.51.04h0c.17-.01.34-.02.51-.04Z"/>
  <path class="cls-3" d="M46.01,40.21c-.2.37-.44.73-.71,1.06.26-.33.5-.68.71-1.06Z"/>
  <g>
    <polygon class="cls-4" points="42.08 54.96 34.24 43.28 40.31 43.28 48.15 54.96 42.08 54.96"/>
    <path class="cls-2" d="M40.04,43.78l7.17,10.68h-4.86l-7.17-10.68h4.86M40.57,42.78h-7.27l1.05,1.56,7.17,10.68.3.44h7.27l-1.05-1.56-7.17-10.68-.3-.44h0Z"/>
  </g>
  <path class="cls-3" d="M46.01,33.52c-.21-.37-.45-.73-.71-1.06-.03-.04-.07-.08-.11-.13-.13-.15-.26-.29-.4-.43-.16-.16-.33-.31-.5-.45-.13-.11-.27-.21-.41-.31-.14-.11-.28-.2-.42-.28-.29-.17-.59-.32-.91-.46-.21-.09-.43-.17-.65-.23-.22-.07-.44-.13-.67-.18-.23-.04-.47-.08-.7-.1-.17-.02-.34-.03-.51-.03-.07-.01-.14-.01-.21-.01h-8.17v19.6h3.6v-5.57h4.57c.07,0,.14,0,.21-.01.17,0,.34-.01.51-.03.23-.02.47-.06.7-.1.18-.04.37-.09.55-.14.06-.02.11-.03.17-.05.2-.06.4-.14.6-.22.21-.09.41-.19.61-.29.2-.11.4-.23.58-.35.19-.13.37-.26.55-.41.17-.14.34-.29.5-.45.14-.14.27-.28.4-.43.03-.04.06-.09.11-.13.26-.33.5-.68.71-1.06.11-.2.21-.4.3-.61.35-.84.55-1.76.55-2.73,0-1.21-.31-2.36-.85-3.35ZM42.84,37.37s-.01.06-.02.09c-.01.08-.03.16-.06.24-.06.22-.14.43-.25.63-.04.09-.09.17-.16.25-.11.17-.23.32-.37.46-.07.07-.14.14-.22.2s-.15.12-.23.17c-.16.11-.35.21-.54.29-.09.04-.18.08-.27.1-.09.03-.18.06-.27.07-.01,0-.03.01-.05.01-.19.04-.39.06-.59.06h-4.57v-6.15h4.57c.07,0,.14,0,.21.01.1.01.2.02.3.04.1.01.19.03.28.06.1.02.19.05.28.09.09.03.18.07.26.11.07.03.13.06.19.1.41.23.76.56,1.02.95.05.07.1.14.13.21.12.2.21.41.27.63.03.1.05.19.07.29.01.03.01.06.02.09.03.16.04.33.04.5s-.01.34-.04.5Z"/>
  <path class="cls-3" d="M40.53,29.89c-.17-.02-.34-.03-.51-.03h0c.17-.01.34.01.51.03Z"/>
  <path class="cls-3" d="M46.01,33.52c-.21-.37-.45-.73-.71-1.06.27.33.51.68.71,1.06Z"/>
</svg>