<?xml version="1.0" encoding="UTF-8"?>
<svg id="Layer_1" xmlns="http://www.w3.org/2000/svg" viewBox="0 0 75.27 86.91">
  <defs>
    <style>
      .cls-1 {
        fill: #fff;
      }

      .cls-2 {
        fill: #231f20;
      }
    </style>
  </defs>
  <g>
    <g>
      <path class="cls-1" d="M.82,64.71V22.2L37.63.94l36.82,21.26v42.51l-36.82,21.25L.82,64.71ZM47.53,54.96v-2.39h-16.66v-20.61h-2.38v23h19.04Z"/>
      <path class="cls-2" d="M37.63,1.88l36,20.79v41.57l-36,20.78L1.63,64.24V22.67L37.63,1.88M27.67,55.77h20.67v-4.02h-16.66v-20.61h-4.01v24.63M37.63,0l-.82.47L.82,21.26,0,21.73v43.46l.82.47,36,20.78.82.47.82-.47,36-20.78.82-.47V21.73l-.82-.47L38.45.47l-.82-.47h0ZM29.31,32.78h.74v20.61h16.66v.75h-17.4v-21.36h0Z"/>
    </g>
    <g>
      <path class="cls-1" d="M4.55,62.55V24.35L37.63,5.25l33.08,19.1v38.2l-33.08,19.1L4.55,62.55ZM47.75,55.18v-2.84h-16.66v-20.61h-2.83v23.45h19.49Z"/>
      <path class="cls-2" d="M37.63,5.93l32.49,18.76v37.52l-32.49,18.76L5.14,62.21V24.69L37.63,5.93M27.67,55.77h20.67v-4.02h-16.66v-20.61h-4.01v24.63M37.63,4.57l-.59.34L4.55,23.67l-.59.34v38.88l.59.34,32.49,18.76.59.34.59-.34,32.49-18.76.59-.34V24.01l-.59-.34L38.22,4.91l-.59-.34h0ZM28.85,32.32h1.65v20.61h16.66v1.66h-18.31v-22.27h0Z"/>
    </g>
    <path class="cls-2" d="M5.14,43.65l13.89-12.14,5.23.02-13.86,12.11,13.84,12.09-5.22.02-13.87-12.12Z"/>
    <path class="cls-2" d="M70.13,43.63l-13.93,12.14-5.23-.03,13.9-12.11-13.88-12.09,5.23-.03,13.91,12.12Z"/>
    <polygon class="cls-2" points="48.34 51.75 48.34 55.77 27.67 55.77 27.67 31.14 31.68 31.14 31.68 51.75 48.34 51.75"/>
  </g>
  <path class="cls-2" d="M41.65,31.19c-.17-.02-.33-.03-.5-.03h0c.17-.01.34,0,.5.03Z"/>
  <path class="cls-2" d="M41.65,45.14c-.16.03-.33.04-.5.04h0c.17-.01.33-.02.5-.04Z"/>
  <path class="cls-2" d="M45.97,43.07c-.28.29-.57.54-.89.77.32-.23.62-.49.89-.77Z"/>
  <g>
    <polygon class="cls-2" points="43.25 56.18 35.52 44.66 41.39 44.66 49.13 56.18 43.25 56.18"/>
    <path class="cls-1" d="M41.17,45.08l7.17,10.68h-4.86l-7.17-10.68h4.86M41.62,44.24h-6.89l.88,1.31,7.17,10.68.25.37h6.89l-.88-1.31-7.17-10.68-.25-.37h0Z"/>
  </g>
  <path class="cls-2" d="M41.65,31.19c-.17-.02-.33-.03-.5-.03h0c.17-.01.34,0,.5.03Z"/>
  <path class="cls-2" d="M45.41,32.75c-.7-.57-1.5-1.01-2.38-1.29.88.27,1.68.71,2.38,1.29Z"/>
  <path class="cls-2" d="M47.85,36.78c-.03-.19-.08-.36-.14-.54-.08-.31-.19-.61-.32-.9-.28-.64-.65-1.22-1.1-1.74-.14-.15-.28-.3-.42-.44-.14-.15-.3-.28-.46-.41-.7-.57-1.5-1.01-2.38-1.29-.01-.01-.02-.01-.04-.01-.21-.06-.42-.11-.64-.16-.23-.04-.47-.08-.7-.1-.17-.02-.33-.03-.5-.03h0s-8.38-.01-8.38-.01v19.6h3.6v-5.57h4.57c.07,0,.14,0,.21-.01.17,0,.33,0,.5-.03.23-.02.47-.06.7-.1.2-.04.4-.09.59-.15.15-.04.29-.09.43-.14.28-.11.56-.23.82-.36.13-.07.26-.14.39-.22.17-.11.34-.22.5-.33.32-.23.62-.49.89-.77.14-.14.27-.29.4-.44.11-.13.21-.26.31-.4.15-.2.29-.42.41-.64.13-.22.24-.46.34-.69.36-.84.56-1.76.56-2.73,0-.48-.05-.94-.14-1.39ZM43.96,38.69c-.07.42-.22.8-.44,1.13-.03.06-.08.13-.12.18-.09.12-.19.23-.29.34-.07.07-.14.14-.22.2-.11.1-.24.18-.37.26-.12.08-.26.14-.4.2-.09.04-.18.08-.27.1-.07.03-.15.05-.23.06-.03,0-.07.02-.1.03-.19.03-.38.05-.58.05h-4.57v-6.15h4.6c.06,0,.12,0,.18.01.03,0,.07,0,.1,0,.09.01.18.02.27.03.03.01.07.02.1.03.08.01.16.03.23.06.09.03.18.06.27.1t.02.01c.08.03.15.06.22.1.23.12.45.27.64.45.06.06.13.12.18.18.07.06.13.13.18.21.06.07.12.15.16.23.22.34.37.72.44,1.13.03.17.05.35.05.53s-.02.35-.05.52Z"/>
</svg>