<?xml version="1.0" encoding="UTF-8"?>
<svg id="Layer_1" xmlns="http://www.w3.org/2000/svg" viewBox="0 0 75.27 86.91">
  <defs>
    <style>
      .cls-1 {
        fill: #fff;
      }

      .cls-2 {
        fill: #231f20;
      }
    </style>
  </defs>
  <g>
    <polygon class="cls-1" points=".82 64.71 .82 22.2 37.63 .94 74.45 22.2 74.45 64.71 37.63 85.97 .82 64.71"/>
    <path class="cls-2" d="M37.63,1.89l36,20.78v41.57l-36,20.78L1.63,64.24V22.67L37.63,1.89M37.63,0l-.82.47L.82,21.26l-.82.47v43.46l.82.47,36,20.78.82.47.82-.47,36-20.78.82-.47V21.73l-.82-.47L38.45.47l-.82-.47h0Z"/>
  </g>
  <g>
    <polygon class="cls-1" points="4.55 62.56 4.55 24.36 37.63 5.26 70.72 24.36 70.72 62.56 37.63 81.66 4.55 62.56"/>
    <path class="cls-2" d="M37.63,5.94l32.49,18.76v37.52l-32.49,18.76L5.14,62.22V24.7L37.63,5.94M37.63,4.57l-.59.34L4.55,23.67l-.59.34v38.88l.59.34,32.49,18.76.59.34.59-.34,32.49-18.76.59-.34V24.01l-.59-.34L38.22,4.91l-.59-.34h0Z"/>
  </g>
  <g>
    <path class="cls-2" d="M20.95,29.65l-.87-1.22h-.01v1.22h-.92v-3.78h1.24c.39,0,.7.05.89.14.41.18.7.63.7,1.17,0,.6-.36,1.09-.94,1.19l1.03,1.29h-1.1ZM20.42,27.77c.38,0,.62-.18.62-.54,0-.33-.25-.51-.61-.51h-.37v1.05h.36Z"/>
    <path class="cls-2" d="M24.47,29.65v-.31h-.01c-.12.25-.46.4-.83.4-.84,0-1.42-.66-1.42-1.52s.61-1.51,1.42-1.51c.35,0,.67.14.83.4h.01v-.3h.85v2.84h-.85ZM24.47,28.23c0-.4-.32-.72-.72-.72s-.7.32-.7.73.31.72.71.72.71-.32.71-.73Z"/>
    <path class="cls-2" d="M29.35,29.65v-1.53c0-.44-.14-.61-.43-.61-.32,0-.47.19-.47.57v1.57h-.85v-1.56c0-.37-.13-.57-.42-.57-.33,0-.48.21-.48.61v1.53h-.85v-2.84h.79v.3h.01c.15-.27.42-.4.78-.4s.64.18.82.51c.21-.32.51-.51.9-.51.63,0,1.05.39,1.05,1.18v1.75h-.85Z"/>
    <path class="cls-2" d="M32.09,29.74c-.86,0-1.53-.64-1.53-1.51s.68-1.51,1.53-1.51,1.53.64,1.53,1.5-.67,1.52-1.53,1.52ZM32.77,28.23c0-.38-.29-.72-.68-.72-.37,0-.67.33-.67.72s.3.72.68.72.68-.34.68-.72Z"/>
    <path class="cls-2" d="M35.78,29.65v-1.57c0-.38-.13-.56-.45-.56-.34,0-.49.19-.49.57v1.56h-.85v-2.84h.79v.3h.01c.18-.29.43-.4.77-.4.51,0,1.05.29,1.05,1.12v1.81h-.85Z"/>
    <path class="cls-2" d="M39.27,29.65v-.31h-.01c-.12.25-.46.4-.83.4-.84,0-1.42-.66-1.42-1.52s.61-1.51,1.42-1.51c.35,0,.67.14.83.4h.01v-.3h.85v2.84h-.85ZM39.27,28.23c0-.4-.32-.72-.72-.72s-.7.32-.7.73.31.72.71.72.71-.32.71-.73Z"/>
    <path class="cls-2" d="M42.19,29.65v-3.78h.97v2.93h1.12v.85h-2.09Z"/>
    <path class="cls-2" d="M45.91,29.74c-.86,0-1.53-.64-1.53-1.51s.68-1.51,1.53-1.51,1.53.64,1.53,1.5-.67,1.52-1.53,1.52ZM46.59,28.23c0-.38-.29-.72-.68-.72-.37,0-.67.33-.67.72s.3.72.68.72.68-.34.68-.72Z"/>
    <path class="cls-2" d="M47.6,29.65v-.58l1.2-1.61h-1.2v-.64h2.11v.64l-1.11,1.55h1.11v.64h-2.11Z"/>
    <path class="cls-2" d="M51.4,29.74c-.86,0-1.53-.64-1.53-1.51s.68-1.51,1.53-1.51,1.53.64,1.53,1.5-.67,1.52-1.53,1.52ZM52.08,28.23c0-.38-.29-.72-.68-.72-.37,0-.67.33-.67.72s.3.72.68.72.68-.34.68-.72Z"/>
    <path class="cls-2" d="M55.09,29.65v-1.57c0-.38-.13-.56-.45-.56-.34,0-.49.19-.49.57v1.56h-.85v-2.84h.79v.3h.01c.18-.29.43-.4.77-.4.51,0,1.05.29,1.05,1.12v1.81h-.85Z"/>
  </g>
  <path class="cls-2" d="M5.14,43.65l13.89-12.14,5.23.02-13.86,12.11,13.84,12.09-5.22.02-13.87-12.12Z"/>
  <path class="cls-2" d="M70.13,43.63l-13.93,12.14-5.23-.03,13.9-12.11-13.88-12.09,5.23-.03,13.91,12.12Z"/>
  <polygon class="cls-2" points="48.42 51.75 48.42 55.77 27.67 55.77 27.67 31.14 31.69 31.14 31.69 51.75 48.42 51.75"/>
  <rect class="cls-2" x="36.01" y="43.44" width="4.01" height="20.65" transform="translate(91.78 15.75) rotate(90)"/>
  <g>
    <path class="cls-2" d="M10.06,60.42l-.51-2.21h0l-.51,2.21h-.79l-.88-3.42h.89l.46,2.22h0l.5-2.22h.67l.5,2.23h0l.47-2.23h.88l-.91,3.42h-.77Z"/>
    <path class="cls-2" d="M12.41,59.37c.04.29.29.49.6.49.21,0,.34-.08.47-.24h.79c-.25.56-.71.89-1.25.89-.74,0-1.36-.6-1.36-1.36s.59-1.38,1.35-1.38,1.35.61,1.35,1.4c0,.07,0,.13-.02.2h-1.92ZM13.59,58.85c-.06-.26-.29-.44-.59-.44-.28,0-.52.17-.58.44h1.17Z"/>
    <path class="cls-2" d="M14.69,60.42v-3.42h.77v1.06c.2-.22.46-.29.73-.29.67,0,1.28.5,1.28,1.35,0,.79-.5,1.39-1.29,1.39-.31,0-.62-.14-.74-.36h0v.27h-.74ZM16.7,59.13c0-.34-.26-.65-.63-.65s-.63.29-.63.65c0,.38.27.66.62.66s.64-.29.64-.66Z"/>
    <path class="cls-2" d="M19.14,60.42v-3.42h1.17c.42,0,.76.07,1,.21.49.28.79.8.79,1.5,0,1.13-.67,1.71-1.73,1.71h-1.22ZM20.41,59.65c.5,0,.82-.31.82-.94s-.31-.95-.81-.95h-.4v1.89h.39Z"/>
    <path class="cls-2" d="M23.12,59.37c.04.29.29.49.6.49.21,0,.34-.08.47-.24h.79c-.25.56-.71.89-1.25.89-.74,0-1.36-.6-1.36-1.36s.59-1.38,1.35-1.38,1.35.61,1.35,1.4c0,.07,0,.13-.02.2h-1.92ZM24.3,58.85c-.06-.26-.29-.44-.59-.44-.28,0-.52.17-.58.44h1.17Z"/>
    <path class="cls-2" d="M26.5,58.58c0-.15-.11-.19-.24-.19s-.22.07-.22.17c0,.14.12.21.48.3.61.16.81.41.81.78,0,.54-.46.87-1.04.87s-.99-.33-1.04-.85h.76c.02.16.14.24.29.24.13,0,.27-.08.27-.2,0-.14-.09-.22-.47-.34-.65-.2-.82-.45-.82-.75,0-.51.48-.84.99-.84.55,0,.95.31.98.81h-.75Z"/>
    <path class="cls-2" d="M27.63,57.58v-.58h.77v.58h-.77ZM27.63,60.42v-2.57h.77v2.57h-.77Z"/>
    <path class="cls-2" d="M30.75,60.12c-.12.24-.4.38-.72.38-.75,0-1.29-.58-1.29-1.35s.55-1.38,1.29-1.38c.33,0,.59.12.71.32h0v-.24h.77v2.29c0,.35-.05.61-.14.79-.18.36-.69.63-1.33.63-.73,0-1.2-.41-1.26-.9h.89c.09.19.26.25.45.25.39,0,.62-.25.62-.72v-.07ZM30.76,59.15c0-.37-.25-.66-.63-.66-.34,0-.62.29-.62.64s.25.66.62.66.63-.27.63-.64Z"/>
    <path class="cls-2" d="M33.64,60.42v-1.42c0-.35-.12-.51-.4-.51-.31,0-.44.17-.44.52v1.41h-.77v-2.57h.72v.27h0c.16-.26.39-.36.7-.36.46,0,.95.26.95,1.02v1.64h-.77Z"/>
    <path class="cls-2" d="M34.92,60.88l1.22-3.88h.85l-1.22,3.88h-.86Z"/>
    <path class="cls-2" d="M37.51,60.42v-3.42h1.17c.42,0,.76.07,1,.21.49.28.79.8.79,1.5,0,1.13-.67,1.71-1.73,1.71h-1.22ZM38.78,59.65c.5,0,.82-.31.82-.94s-.31-.95-.81-.95h-.4v1.89h.39Z"/>
    <path class="cls-2" d="M41.49,59.37c.04.29.29.49.6.49.21,0,.34-.08.47-.24h.79c-.25.56-.71.89-1.25.89-.74,0-1.36-.6-1.36-1.36s.59-1.38,1.35-1.38,1.35.61,1.35,1.4c0,.07,0,.13-.02.2h-1.92ZM42.66,58.85c-.06-.26-.29-.44-.59-.44-.28,0-.52.17-.58.44h1.17Z"/>
    <path class="cls-2" d="M44.4,60.42l-.92-2.57h.8l.49,1.6h0l.49-1.6h.79l-.92,2.57h-.73Z"/>
    <path class="cls-2" d="M46.86,59.37c.04.29.29.49.6.49.21,0,.34-.08.47-.24h.79c-.25.56-.71.89-1.25.89-.74,0-1.36-.6-1.36-1.36s.59-1.38,1.35-1.38,1.35.61,1.35,1.4c0,.07,0,.13-.02.2h-1.92ZM48.03,58.85c-.06-.26-.29-.44-.59-.44-.28,0-.52.17-.58.44h1.17Z"/>
    <path class="cls-2" d="M49.14,60.42v-3.42h.77v3.42h-.77Z"/>
    <path class="cls-2" d="M51.64,60.5c-.78,0-1.38-.58-1.38-1.36s.62-1.36,1.38-1.36,1.38.58,1.38,1.35-.61,1.37-1.38,1.37ZM52.26,59.13c0-.34-.26-.65-.62-.65-.34,0-.61.3-.61.65s.27.65.62.65.61-.31.61-.65Z"/>
    <path class="cls-2" d="M53.37,61.28v-3.42h.72v.28h.01c.2-.25.49-.37.8-.37.73,0,1.25.6,1.25,1.4,0,.73-.51,1.35-1.25,1.35-.3,0-.56-.09-.77-.32v1.09h-.77ZM55.39,59.14c0-.36-.28-.66-.65-.66s-.64.29-.64.66.28.65.64.65.64-.3.64-.65Z"/>
    <path class="cls-2" d="M59.68,60.42v-1.38c0-.4-.13-.55-.39-.55-.29,0-.42.18-.42.51v1.42h-.77v-1.41c0-.33-.12-.52-.38-.52-.3,0-.43.19-.43.55v1.38h-.77v-2.57h.72v.27h0c.13-.24.38-.36.71-.36s.58.17.74.46c.19-.29.46-.46.81-.46.57,0,.95.35.95,1.07v1.59h-.77Z"/>
    <path class="cls-2" d="M61.52,59.37c.04.29.29.49.6.49.21,0,.34-.08.47-.24h.79c-.25.56-.71.89-1.25.89-.74,0-1.36-.6-1.36-1.36s.59-1.38,1.35-1.38,1.35.61,1.35,1.4c0,.07,0,.13-.02.2h-1.92ZM62.7,58.85c-.06-.26-.29-.44-.59-.44-.28,0-.52.17-.58.44h1.17Z"/>
    <path class="cls-2" d="M65.42,60.42v-1.42c0-.35-.12-.51-.4-.51-.31,0-.44.17-.44.52v1.41h-.77v-2.57h.72v.27h0c.16-.26.39-.36.7-.36.46,0,.95.26.95,1.02v1.64h-.77Z"/>
    <path class="cls-2" d="M66.8,60.42v-1.98h-.38v-.58h.38v-.86h.77v.86h.37v.58h-.37v1.98h-.77Z"/>
  </g>
  <path class="cls-2" d="M41.75,45.13c-.16.03-.33.04-.5.04h0c.17,0,.33-.02.5-.04Z"/>
  <path class="cls-2" d="M44.39,44.33c-.4.22-.82.4-1.26.53.44-.14.86-.32,1.26-.53Z"/>
  <path class="cls-2" d="M47.24,41.5c-.2.37-.44.73-.71,1.06.26-.33.5-.68.71-1.06Z"/>
  <g>
    <polygon class="cls-2" points="43.32 56.21 35.62 44.68 41.55 44.68 49.24 56.21 43.32 56.21"/>
    <path class="cls-1" d="M41.31,45.12l7.11,10.64h-4.86l-7.11-10.64h4.86M41.78,44.24h-6.99l.92,1.37,7.11,10.64.26.39h6.99l-.92-1.37-7.11-10.64-.26-.39h0Z"/>
  </g>
  <path class="cls-2" d="M47.24,34.81c-.21-.37-.45-.73-.71-1.06-.03-.04-.07-.08-.11-.13-.13-.15-.26-.29-.4-.43-.16-.16-.33-.31-.5-.45-.11-.09-.22-.17-.34-.26-.69-.49-1.46-.87-2.3-1.1-.14-.04-.29-.07-.43-.1-.23-.04-.46-.08-.7-.1-.17-.02-.33-.03-.5-.03-.07-.01-.15-.01-.22-.01h-8.16v19.74h3.61v-5.71h4.55c.07,0,.15,0,.22,0,.17,0,.33-.01.5-.03.24-.02.47-.06.7-.1.22-.05.43-.1.64-.16.02-.01.03-.01.04-.01.44-.14.86-.32,1.26-.53.2-.11.39-.23.58-.35.19-.13.37-.26.55-.41.17-.14.34-.29.5-.45.14-.14.27-.28.4-.43.03-.04.06-.09.11-.13.26-.33.5-.68.71-1.06.11-.2.21-.4.3-.61.35-.84.55-1.76.55-2.73,0-1.21-.31-2.36-.85-3.35ZM44.07,38.66s-.01.06-.02.09c-.01.08-.03.16-.06.24-.06.22-.14.43-.25.63-.04.09-.09.17-.16.25-.11.17-.23.32-.37.46-.07.07-.14.14-.22.2-.08.06-.15.12-.23.17-.17.11-.35.21-.54.29-.09.04-.18.08-.27.1-.09.03-.18.06-.27.07-.02,0-.03,0-.05,0-.19.04-.39.06-.6.06h-4.55v-6.15h4.55c.08,0,.15,0,.22.01.1.01.2.02.3.04.1.01.19.03.28.06.09.02.19.05.28.09.09.03.18.07.26.11.07.03.13.06.19.1.41.23.76.56,1.02.95.05.07.1.14.13.21.12.2.21.41.27.63.03.1.05.19.07.29.01.03.01.06.02.09.03.16.04.33.04.5s-.01.34-.04.5Z"/>
  <path class="cls-2" d="M41.75,31.18c-.17-.02-.33-.03-.5-.03h0c.17-.01.34,0,.5.03Z"/>
  <path class="cls-2" d="M45.18,32.48c-.69-.49-1.46-.87-2.3-1.1.84.22,1.61.59,2.3,1.1Z"/>
  <path class="cls-2" d="M47.24,34.81c-.21-.37-.45-.73-.71-1.06.27.33.51.68.71,1.06Z"/>
</svg>