<?xml version="1.0" encoding="UTF-8"?>
<svg id="Layer_1" xmlns="http://www.w3.org/2000/svg" viewBox="0 0 250 315.19">
  <defs>
    <style>
      .cls-1 {
        fill: #231f20;
      }

      .cls-2 {
        font-family: AinslieSans-NorReg, 'Ainslie Sans';
        font-size: 21.32px;
      }

      .cls-2, .cls-3 {
        fill: #f9a45d;
      }

      .cls-4 {
        fill: #06252e;
      }

      .cls-5 {
        letter-spacing: -.06em;
      }
    </style>
  </defs>
  <rect class="cls-3" width="250" height="315.19"/>
  <g>
    <rect class="cls-4" x="7.5" y="7.75" width="235" height="299.68"/>
    <path class="cls-3" d="M240,10.25v294.68H10V10.25h230M245,5.25H5v304.68h240V5.25h0Z"/>
  </g>
  <path class="cls-3" d="M124.4,97.27v50.51c-20.89.99-37.51,18.24-37.52,39.37v89.94h-50.04V97.23h50.04v9.32c11.35-5.64,24.07-8.94,37.52-9.28Z"/>
  <g>
    <path class="cls-4" d="M168.19,274.59v-10.32l-3.58,1.72c-11.88,5.71-24.61,8.6-37.85,8.6-11.3,0-22.28-2.13-32.66-6.32v-54.25c7.88,9.45,19.62,15.08,32.21,15.08,22.49,0,40.88-17.59,41.88-40.04.03-.62.04-1.24.04-1.89s-.01-1.28-.04-1.9c-.91-20.48-16.46-37.16-36.57-39.69v-45.7c11.54.62,22.62,3.46,32.98,8.46l3.59,1.73V30.59h46v244h-46Z"/>
    <path class="cls-3" d="M211.69,33.09v239h-41v-11.8l-7.17,3.44c-11.54,5.55-23.91,8.36-36.76,8.36-10.41,0-20.54-1.86-30.16-5.53v-46.36c8.03,7.22,18.56,11.39,29.71,11.39,23.83,0,43.32-18.64,44.37-42.4.03-.62.05-1.27.05-2.03s-.02-1.42-.04-1.99c-.93-20.97-16.32-38.17-36.56-41.75v-40.87c10.26.87,20.13,3.56,29.4,8.03l7.17,3.46V33.09h41M216.69,28.09h-51v77.99c-11.11-5.36-23.5-8.48-36.57-8.81v50.57c19.87,1.39,35.68,17.52,36.57,37.55.03.58.04,1.17.04,1.77s-.01,1.19-.04,1.78c-.93,20.95-18.21,37.65-39.38,37.65-15,0-28.04-8.38-34.71-20.7v64.03h-.04c10.81,4.61,22.71,7.17,35.2,7.17,13.94,0,27.15-3.19,38.93-8.85v8.85h51V28.09h0Z"/>
  </g>
  <path class="cls-1" d="M165.73,187.16c0,.6-.01,1.19-.04,1.78v-3.56c.03.59.04,1.18.04,1.78Z"/>
  <path class="cls-1" d="M165.73,187.16c0,.6-.01,1.19-.04,1.78v-3.56c.03.59.04,1.18.04,1.78Z"/>
  <path class="cls-1" d="M165.73,187.16c0,.6-.01,1.19-.04,1.78v-3.56c.03.59.04,1.18.04,1.78Z"/>
  <text class="cls-2" transform="translate(34.53 298.02) scale(.96 1)"><tspan x="0" y="0">RAMON</tspan><tspan class="cls-5" x="79.24" y="0">A</tspan><tspan x="92.18" y="0">’S DESIGN</tspan></text>
</svg>